<?xml version="1.0" encoding="UTF-8" standalone="no"?>
<svg
   width="1024"
   height="1024"
   viewBox="0 0 1024 1024"
   fill="none"
   version="1.1"
   id="svg43"
   sodipodi:docname="github-logo.svg"
   inkscape:version="1.1.2 (0a00cf5339, 2022-02-04)"
   xmlns:inkscape="http://www.inkscape.org/namespaces/inkscape"
   xmlns:sodipodi="http://sodipodi.sourceforge.net/DTD/sodipodi-0.dtd"
   xmlns="http://www.w3.org/2000/svg"
   xmlns:svg="http://www.w3.org/2000/svg">
  <defs
     id="defs47" />
  <sodipodi:namedview
     id="namedview45"
     pagecolor="#505050"
     bordercolor="#eeeeee"
     borderopacity="1"
     inkscape:pageshadow="0"
     inkscape:pageopacity="0"
     inkscape:pagecheckerboard="0"
     showgrid="false"
     inkscape:zoom="1.1435547"
     inkscape:cx="511.56277"
     inkscape:cy="512"
     inkscape:window-width="2560"
     inkscape:window-height="1383"
     inkscape:window-x="0"
     inkscape:window-y="27"
     inkscape:window-maximized="1"
     inkscape:current-layer="svg43" />
  <path
     fill-rule="evenodd"
     clip-rule="evenodd"
     d="M8 0C3.58 0 0 3.58 0 8C0 11.54 2.29 14.53 5.47 15.59C5.87 15.66 6.02 15.42 6.02 15.21C6.02 15.02 6.01 14.39 6.01 13.72C4 14.09 3.48 13.23 3.32 12.78C3.23 12.55 2.84 11.84 2.5 11.65C2.22 11.5 1.82 11.13 2.49 11.12C3.12 11.11 3.57 11.7 3.72 11.94C4.44 13.15 5.59 12.81 6.05 12.6C6.12 12.08 6.33 11.73 6.56 11.53C4.78 11.33 2.92 10.64 2.92 7.58C2.92 6.71 3.23 5.99 3.74 5.43C3.66 5.23 3.38 4.41 3.82 3.31C3.82 3.31 4.49 3.1 6.02 4.13C6.66 3.95 7.34 3.86 8.02 3.86C8.7 3.86 9.38 3.95 10.02 4.13C11.55 3.09 12.22 3.31 12.22 3.31C12.66 4.41 12.38 5.23 12.3 5.43C12.81 5.99 13.12 6.7 13.12 7.58C13.12 10.65 11.25 11.33 9.47 11.53C9.76 11.78 10.01 12.26 10.01 13.01C10.01 14.08 10 14.94 10 15.21C10 15.42 10.15 15.67 10.55 15.59C13.71 14.53 16 11.53 16 8C16 3.58 12.42 0 8 0Z"
     transform="scale(64)"
     fill="#1B1F23"
     id="path41" />
  <path
     style="fill:#ffffff;stroke-width:0.874466"
     d="m 351.15436,997.61989 c -3.06793,-0.65585 -29.35327,-10.62774 -41.15607,-15.61342 -14.75661,-6.23346 -46.65574,-22.6074 -61.21264,-31.42062 C 144.30033,887.32696 66.530867,791.08596 27.577306,676.83689 -1.2610029,592.25541 -7.2288172,498.72921 10.586561,410.56191 19.758726,365.16939 33.597736,324.95925 54.246446,283.70529 103.95169,184.39944 182.86882,105.20275 282.01537,55.129548 339.99544,25.84716 397.93928,9.2325003 465.65329,2.4737075 c 21.44609,-2.14061604 71.24733,-2.14061604 92.69342,0 C 611.13793,7.743 655.80092,18.50202 702.81724,37.275706 c 26.90926,10.744908 61.14175,28.399059 84.97788,43.824228 53.30355,34.494536 97.69476,75.964136 135.03604,126.148576 50.24858,67.53113 83.68434,148.441 95.40184,230.85909 3.8415,27.02052 4.8065,41.69304 4.8311,73.45517 0.024,30.92718 -0.6095,41.85434 -3.903,67.3339 -17.5719,135.94202 -90.87283,260.88297 -201.53514,343.51545 -39.58832,29.56089 -81.12931,52.15797 -128.98377,70.16332 -13.14155,4.9445 -13.82047,5.1012 -22.29889,5.14519 -8.18865,0.0428 -9.05048,-0.1261 -13.55423,-2.65156 -5.37263,-3.01271 -9.84717,-8.73443 -11.4605,-14.65483 -0.71669,-2.62996 -0.87562,-23.58785 -0.57466,-75.77889 0.22882,-39.6789 0.084,-77.6526 -0.32175,-84.38599 -1.93125,-32.04702 -10.78369,-56.73678 -27.16856,-75.77404 -2.78977,-3.24139 -5.07231,-6.05508 -5.07231,-6.25265 0,-0.19757 2.72258,-0.61226 6.05019,-0.92153 17.66996,-1.64225 54.07849,-9.17374 72.65177,-15.02878 42.69404,-13.45889 77.35087,-35.28753 101.25161,-63.77345 35.28132,-42.04979 53.43569,-104.73172 51.52305,-177.8946 -0.53544,-20.48155 -1.92857,-31.70415 -5.87242,-47.30627 -7.5179,-29.74129 -19.25082,-53.08726 -38.86,-77.32302 l -7.12972,-8.81191 2.11071,-6.12127 c 2.96041,-8.58545 5.96401,-23.50535 7.21777,-35.85311 2.61499,-25.75372 -1.70929,-57.51273 -11.60259,-85.21341 -2.79086,-7.81425 -3.11371,-8.30377 -5.97791,-9.06398 -5.10962,-1.35619 -22.22787,-0.10054 -33.63402,2.46712 -11.54124,2.59806 -26.96115,7.82774 -39.78822,13.49421 -15.94215,7.04259 -41.90056,21.53455 -58.42653,32.61815 l -6.39578,4.28951 -12.40524,-3.06573 c -22.39129,-5.53361 -43.91049,-9.24659 -70.12001,-12.09872 -14.33384,-1.55982 -76.69448,-1.55383 -90.9445,0.009 -27.78991,3.04726 -47.60017,6.46055 -70.0565,12.07066 l -12.34173,3.08325 -8.90848,-5.76245 c -39.75463,-25.71532 -77.58438,-42.15518 -106.89399,-46.45347 -10.26169,-1.50488 -23.67408,-1.40566 -25.26666,0.18691 -1.30154,1.30154 -7.3676,19.78106 -9.96643,30.3615 -8.11982,33.05774 -7.36669,70.09611 1.99661,98.19108 l 2.37638,7.13044 -5.489,6.42379 c -24.8398,29.07004 -40.56959,65.99394 -45.28446,106.30014 -1.52583,13.04387 -1.70071,39.08341 -0.38016,56.60364 9.85516,130.75212 78.74751,200.97962 215.06669,219.2347 7.45482,0.99831 14.08048,1.96824 14.72367,2.15539 0.74259,0.21608 -0.47502,2.01535 -3.3358,4.92937 -11.77314,11.99223 -20.99076,31.32754 -25.64293,53.78976 l -1.94448,9.38857 -6.98478,2.78736 c -35.01046,13.97138 -71.51264,13.34644 -98.36649,-1.68411 -14.09941,-7.89167 -28.73309,-22.15718 -39.20644,-38.22004 -12.7038,-19.48367 -25.68479,-33.9605 -38.68369,-43.14136 -7.00162,-4.9451 -18.65148,-10.5909 -25.73413,-12.47139 -12.25329,-3.25333 -32.20838,-2.39479 -38.18169,1.64272 -8.73353,5.90322 -1.0675,17.86975 19.38067,30.25285 10.81738,6.55085 19.7983,16.06831 31.4082,33.28465 10.77555,15.97908 17.61975,28.71834 24.64154,45.8658 4.07781,9.95817 11.67987,20.79234 20.67156,29.46037 16.23052,15.64626 38.41262,25.13746 67.41209,28.84406 17.89951,2.28778 51.24249,0.89265 74.11035,-3.10112 3.81222,-0.66573 6.99492,-1.1494 7.07264,-1.07481 0.0777,0.0743 0.24916,22.76253 0.38093,50.41753 l 0.2396,50.28181 -2.02167,4.59733 c -3.77492,8.58429 -11.56415,13.32101 -22.68112,13.79278 -3.66596,0.15557 -7.62388,0.0778 -8.79539,-0.17244 z"
     id="path203" />
</svg>
